# Blender v2.81 (sub 16) OBJ File: 'island.blend'
# www.blender.org
mtllib grass.mtl
o Plane
v 0.014308 4.492606 0.463933
v -0.000000 -1.000000 0.634365
v 0.072369 4.496623 -0.425218
v -0.000000 -1.000000 -0.653217
v -1.329030 10.452073 -1.387312
v -1.219613 10.071353 -1.624383
v -3.878108 13.610368 -4.034712
v -3.836164 13.464425 -4.125590
v 1.285561 2.776752 0.613676
v -0.173634 -0.304491 -0.297575
v 1.637368 2.590786 1.003023
v 0.334730 -0.573213 0.265036
v 3.118165 4.493753 2.415950
v 3.136641 4.213488 2.481572
v 5.045418 6.297011 2.888481
v 5.052500 6.189576 2.913636
v -0.402201 2.758217 -0.418432
v 0.188562 -0.512059 0.144112
v -0.702226 2.805368 0.048155
v -0.244979 -0.443926 0.818335
v -1.838684 5.023882 -0.620988
v -1.908529 4.660735 -0.337957
v -2.153506 7.219283 0.588425
v -2.180279 7.080076 0.696919
v 0.172143 4.501547 -0.265847
v 0.314441 -0.203637 -0.300733
v -0.565708 4.504989 -0.070375
v -0.731101 -0.203637 0.050603
v -0.964555 9.606663 1.330110
v -1.186918 9.280523 1.305950
v -2.581277 10.697115 3.669974
v -2.666517 10.572095 3.660713
v -0.187665 3.055574 -1.000768
v -0.394934 0.392164 0.094555
v 0.032496 2.896268 -1.392681
v -0.076798 0.161966 -0.471764
v 0.432219 5.246284 -2.440692
v 0.480463 5.006197 -2.473601
v 0.768110 6.047272 -5.012781
v 0.786604 5.955239 -5.025396
v -0.430705 3.015801 0.313133
v -0.135106 0.214353 -0.320076
v 0.030040 3.056192 0.429445
v 0.530674 0.272718 -0.152005
v -0.322165 5.933244 1.068534
v -0.073280 5.622157 1.048020
v 1.319721 8.789573 2.920907
v 1.415126 8.670322 2.913043
vt 0.000000 0.000000
vt 1.000000 0.000000
vt 1.000000 1.000000
vt 0.000000 1.000000
vt 0.000000 1.000000
vt 0.000000 0.000000
vt 0.000000 1.000000
vt 0.000000 0.000000
vt 0.000000 0.000000
vt 1.000000 0.000000
vt 1.000000 1.000000
vt 0.000000 1.000000
vt 0.000000 1.000000
vt 0.000000 0.000000
vt 0.000000 1.000000
vt 0.000000 0.000000
vt 0.000000 0.000000
vt 1.000000 0.000000
vt 1.000000 1.000000
vt 0.000000 1.000000
vt 0.000000 1.000000
vt 0.000000 0.000000
vt 0.000000 1.000000
vt 0.000000 0.000000
vt 0.000000 0.000000
vt 1.000000 0.000000
vt 1.000000 1.000000
vt 0.000000 1.000000
vt 0.000000 1.000000
vt 0.000000 0.000000
vt 0.000000 1.000000
vt 0.000000 0.000000
vt 0.000000 0.000000
vt 1.000000 0.000000
vt 1.000000 1.000000
vt 0.000000 1.000000
vt 0.000000 1.000000
vt 0.000000 0.000000
vt 0.000000 1.000000
vt 0.000000 0.000000
vt 0.000000 0.000000
vt 1.000000 0.000000
vt 1.000000 1.000000
vt 0.000000 1.000000
vt 0.000000 1.000000
vt 0.000000 0.000000
vt 0.000000 1.000000
vt 0.000000 0.000000
vn 0.9996 -0.0080 0.0266
vn 0.9690 0.2384 0.0644
vn 0.8496 0.4323 -0.3022
vn -0.7049 0.1274 0.6978
vn -0.7358 0.0727 0.6733
vn -0.3938 0.1849 0.9004
vn -0.8279 -0.2370 -0.5084
vn -0.6690 -0.5067 -0.5437
vn -0.9696 -0.0042 -0.2447
vn -0.2931 -0.0080 -0.9560
vn -0.2477 0.2384 -0.9391
vn -0.6122 0.4648 -0.6396
vn 0.8854 0.1162 0.4501
vn 0.8713 0.0685 0.4860
vn 0.9689 0.1701 0.1795
vn -0.2182 -0.2370 0.9467
vn -0.3656 -0.3494 0.8627
usemtl None
s off
f 1/1/1 2/2/1 4/3/1 3/4/1
f 1/1/2 3/4/2 6/5/2 5/6/2
f 5/6/3 6/5/3 8/7/3 7/8/3
f 9/9/4 10/10/4 12/11/4 11/12/4
f 9/9/5 11/12/5 14/13/5 13/14/5
f 13/14/6 14/13/6 16/15/6 15/16/6
f 17/17/7 18/18/7 20/19/7 19/20/7
f 17/17/8 19/20/8 22/21/8 21/22/8
f 21/22/9 22/21/9 24/23/9 23/24/9
f 25/25/10 26/26/10 28/27/10 27/28/10
f 25/25/11 27/28/11 30/29/11 29/30/11
f 29/30/12 30/29/12 32/31/12 31/32/12
f 33/33/13 34/34/13 36/35/13 35/36/13
f 33/33/14 35/36/14 38/37/14 37/38/14
f 37/38/15 38/37/15 40/39/15 39/40/15
f 41/41/16 42/42/16 44/43/16 43/44/16
f 41/41/16 43/44/16 46/45/16 45/46/16
f 45/46/17 46/45/17 48/47/17 47/48/17
